HIERARCHY
ROOT hip
{
  OFFSET 0 0 0
  CHANNELS 6 Xposition Yposition Zposition Zrotation Yrotation Xrotation
  JOINT abdomen
  {
    OFFSET 0 20.6881 -0.73152
    CHANNELS 3 Zrotation Xrotation Yrotation
    JOINT chest
    {
      OFFSET 0 11.7043 -0.48768
      CHANNELS 3 Zrotation Xrotation Yrotation
      JOINT neck
      {
        OFFSET 0 22.1894 -2.19456
        CHANNELS 3 Zrotation Xrotation Yrotation
        JOINT head
        {
          OFFSET -0.24384 7.07133 1.2192
          CHANNELS 3 Zrotation Xrotation Yrotation
          JOINT leftEye
          {
            OFFSET 4.14528 8.04674 8.04672
            CHANNELS 3 Zrotation Xrotation Yrotation
            End Site
            {
              OFFSET 1 0 0
            }
          }
          JOINT rightEye
          {
            OFFSET -3.6576 8.04674 8.04672
            CHANNELS 3 Zrotation Xrotation Yrotation
            End Site
            {
              OFFSET 1 0 0
            }
          }
        }
      }
      JOINT rCollar
      {
        OFFSET -2.68224 19.2634 -4.8768
        CHANNELS 3 Zrotation Xrotation Yrotation
        JOINT rShldr
        {
          OFFSET -8.77824 -1.95073 1.46304
          CHANNELS 3 Zrotation Xrotation Yrotation
          JOINT rForeArm
          {
            OFFSET -28.1742 -1.7115 0.48768
            CHANNELS 3 Zrotation Xrotation Yrotation
            JOINT rHand
            {
              OFFSET -22.5879 0.773209 7.07136
              CHANNELS 3 Zrotation Xrotation Yrotation
              JOINT rThumb1
              {
                OFFSET -1.2192 -0.487915 3.41376
                CHANNELS 3 Zrotation Xrotation Yrotation
                JOINT rThumb2
                {
                  OFFSET -3.37035 -0.52449 3.41376
                  CHANNELS 3 Zrotation Xrotation Yrotation
                  End Site
                  {
                    OFFSET -1.78271 -1.18214 1.43049
                  }
                }
              }
              JOINT rIndex1
              {
                OFFSET -7.75947 0.938293 5.60832
                CHANNELS 3 Zrotation Xrotation Yrotation
                JOINT rIndex2
                {
                  OFFSET -2.54057 -0.884171 1.56538
                  CHANNELS 3 Zrotation Xrotation Yrotation
                  End Site
                  {
                    OFFSET -1.62519 -0.234802 1.16502
                  }
                }
              }
              JOINT rMid1
              {
                OFFSET -8.24714 1.18213 3.41376
                CHANNELS 3 Zrotation Xrotation Yrotation
                JOINT rMid2
                {
                  OFFSET -3.10165 -0.590103 1.0647
                  CHANNELS 3 Zrotation Xrotation Yrotation
                  End Site
                  {
                    OFFSET -2.48547 -0.328903 0.83742
                  }
                }
              }
              JOINT rRing1
              {
                OFFSET -8.82822 0.546677 1.51678
                CHANNELS 3 Zrotation Xrotation Yrotation
                JOINT rRing2
                {
                  OFFSET -2.60934 -0.819778 -0.0198488
                  CHANNELS 3 Zrotation Xrotation Yrotation
                  End Site
                  {
                    OFFSET -2.33842 -0.294052 0.168128
                  }
                }
              }
              JOINT rPinky1
              {
                OFFSET -8.27202 -0.0477905 -0.4584
                CHANNELS 3 Zrotation Xrotation Yrotation
                JOINT rPinky2
                {
                  OFFSET -1.82734 -0.647385 -0.700984
                  CHANNELS 3 Zrotation Xrotation Yrotation
                  End Site
                  {
                    OFFSET -1.69225 -0.51767 -0.607171
                  }
                }
              }
            }
          }
        }
      }
      JOINT lCollar
      {
        OFFSET 2.68224 19.2634 -4.8768
        CHANNELS 3 Zrotation Xrotation Yrotation
        JOINT lShldr
        {
          OFFSET 8.77824 -1.95073 1.46304
          CHANNELS 3 Zrotation Xrotation Yrotation
          JOINT lForeArm
          {
            OFFSET 28.1742 -1.7115 0.48768
            CHANNELS 3 Zrotation Xrotation Yrotation
            JOINT lHand
            {
              OFFSET 22.5879 0.773209 7.07136
              CHANNELS 3 Zrotation Xrotation Yrotation
              JOINT lThumb1
              {
                OFFSET 1.2192 -0.487915 3.41376
                CHANNELS 3 Zrotation Xrotation Yrotation
                JOINT lThumb2
                {
                  OFFSET 3.37035 -0.52449 3.41376
                  CHANNELS 3 Zrotation Xrotation Yrotation
                  End Site
                  {
                    OFFSET 1.78271 -1.18214 1.43049
                  }
                }
              }
              JOINT lIndex1
              {
                OFFSET 7.75947 0.938293 5.60832
                CHANNELS 3 Zrotation Xrotation Yrotation
                JOINT lIndex2
                {
                  OFFSET 2.54057 -0.884171 1.56538
                  CHANNELS 3 Zrotation Xrotation Yrotation
                  End Site
                  {
                    OFFSET 1.62519 -0.234802 1.16502
                  }
                }
              }
              JOINT lMid1
              {
                OFFSET 8.24714 1.18213 3.41376
                CHANNELS 3 Zrotation Xrotation Yrotation
                JOINT lMid2
                {
                  OFFSET 3.10165 -0.590103 1.0647
                  CHANNELS 3 Zrotation Xrotation Yrotation
                  End Site
                  {
                    OFFSET 2.48547 -0.328903 0.83742
                  }
                }
              }
              JOINT lRing1
              {
                OFFSET 8.82822 0.546677 1.51678
                CHANNELS 3 Zrotation Xrotation Yrotation
                JOINT lRing2
                {
                  OFFSET 2.60934 -0.819778 -0.0198488
                  CHANNELS 3 Zrotation Xrotation Yrotation
                  End Site
                  {
                    OFFSET 2.33842 -0.294052 0.168128
                  }
                }
              }
              JOINT lPinky1
              {
                OFFSET 8.27202 -0.0477905 -0.4584
                CHANNELS 3 Zrotation Xrotation Yrotation
                JOINT lPinky2
                {
                  OFFSET 1.82734 -0.647385 -0.700984
                  CHANNELS 3 Zrotation Xrotation Yrotation
                  End Site
                  {
                    OFFSET 1.69225 -0.51767 -0.607171
                  }
                }
              }
            }
          }
        }
      }
    }
  }
  JOINT rButtock
  {
    OFFSET -8.77824 4.35084 1.2192
    CHANNELS 3 Zrotation Xrotation Yrotation
    JOINT rThigh
    {
      OFFSET 0 -1.70687 -2.19456
      CHANNELS 3 Zrotation Xrotation Yrotation
      JOINT rShin
      {
        OFFSET 0 -36.8199 0.73152
        CHANNELS 3 Zrotation Xrotation Yrotation
        JOINT rFoot
        {
          OFFSET 0.73152 -45.1104 -5.12064
          CHANNELS 3 Zrotation Xrotation Yrotation
          End Site
          {
            OFFSET -1.1221 -3.69964 12.103
          }
        }
      }
    }
  }
  JOINT lButtock
  {
    OFFSET 8.77824 4.35084 1.2192
    CHANNELS 3 Zrotation Xrotation Yrotation
    JOINT lThigh
    {
      OFFSET 0 -1.70687 -2.19456
      CHANNELS 3 Zrotation Xrotation Yrotation
      JOINT lShin
      {
        OFFSET 0 -36.8199 0.73152
        CHANNELS 3 Zrotation Xrotation Yrotation
        JOINT lFoot
        {
          OFFSET -0.73152 -45.1104 -5.12064
          CHANNELS 3 Zrotation Xrotation Yrotation
          End Site
          {
            OFFSET 1.1221 -3.69964 12.103
          }
        }
      }
    }
  }
}
MOTION
Frames:	4
Frame Time:	0.03333
1.6487433557039644 40.90191165589353 0.9654338839603398 -2.346099615097046 -1.3664000034332275 5.952899932861328 -5.594319820404053 2.3397397994995117 -0.017770998179912567 3.8585798740386963 -6.085639953613281 0.07485700398683548 -11.7347993850708 15.862298965454102 -13.835100173950195 17.825000762939453 -12.584299087524414 -24.872800827026367 -0.0 0.0 -0.0 -0.0 0.0 -0.0 -2.5444436054650188e-14 0.0 -1.908332704098764e-14 74.78849792480469 40.965301513671875 -4.936649799346924 -15.417098999023438 -8.156729698181152 28.45149803161621 -0.0001346559583907947 -0.33134397864341736 -0.04656779393553734 5.200334052268829e-10 -6.205898017697109e-10 4.412001597398074e-10 8.996898226421024e-10 -1.0736279643097646e-09 7.640073573789152e-10 5.200334052268829e-10 -6.205898017697109e-10 4.4119380371299144e-10 7.7309088706970215 5.474880218505859 0.41731396317481995 5.200334052268829e-10 -6.20564377662447e-10 4.412128717934394e-10 2.9055399894714355 0.9651829600334167 0.10290198773145676 5.200334052268829e-10 -6.20564377662447e-10 4.412128717934394e-10 10.27859878540039 0.73180091381073 0.025912299752235413 5.200334052268829e-10 -6.20564377662447e-10 4.4121925557583097e-10 2.2216696739196777 -0.7334870100021362 -0.2089199721813202 -2.5444436054650188e-14 0.0 -1.908332704098764e-14 -76.45879364013672 32.94780349731445 -7.7129597663879395 12.30479907989502 -5.664680480957031 -22.201398849487305 1.1839897632598877 29.31009864807129 -4.525359630584717 4.0454109506704583e-10 9.175009085815589e-10 6.002978669705783e-10 7.124442147343757e-10 1.5789545226851942e-09 1.0260914340420868e-09 4.0454109506704583e-10 9.175009085815589e-10 6.003041952418187e-10 -7.7309088706970215 5.474880218505859 -0.41731396317481995 4.0454109506704583e-10 9.175009085815589e-10 6.002978669705783e-10 -2.9055399894714355 0.9651829600334167 -0.10290198773145676 4.0454109506704583e-10 9.175009085815589e-10 6.002978669705783e-10 -10.27859878540039 0.73180091381073 -0.025912299752235413 4.0454109506704583e-10 9.175009085815589e-10 6.002851549169463e-10 -2.2216696739196777 -0.7334870100021362 0.2089199721813202 -0.0 0.0 -0.0 -7.891709327697754 -22.973901748657227 9.91447925567627 -0.190156027674675 32.78739547729492 0.8718438744544983 -1.9405300617218018 -6.524110317230225 -13.029000282287598 -0.0 0.0 -0.0 6.171719551086426 -16.349700927734375 -3.3888700008392334 0.08454664796590805 32.31669998168945 -0.9375939965248108 3.099489688873291 -9.824119567871094 18.685298919677734
1.6402234734493204 40.89549127807371 0.9826226186306856 -2.329399824142456 -1.4353998899459839 5.902899265289307 -5.64954948425293 2.325039863586426 -0.1763339787721634 3.998589277267456 -6.080400466918945 0.03569939732551575 -11.884300231933594 15.955498695373535 -13.959399223327637 18.137399673461914 -11.683100700378418 -25.219499588012695 -0.0 0.0 -0.0 -0.0 0.0 -0.0 5.0888872109300376e-14 7.633330816395056e-14 1.908332704098764e-14 74.55059814453125 41.21989440917969 -4.763919830322266 -15.489298820495605 -8.221229553222656 28.601898193359375 -0.00020281197794247419 -0.4032680094242096 -0.05667660012841225 -6.540237795782389e-10 1.046198905285678e-09 -3.199701337219807e-10 -1.1325572701892384e-09 1.809837280042359e-09 -5.511073819519652e-10 -6.540237795782389e-10 1.046198905285678e-09 -3.199765175043723e-10 7.7309088706970215 5.474880218505859 0.41731396317481995 -6.540237795782389e-10 1.046198905285678e-09 -3.199637776951647e-10 2.9055399894714355 0.9651829600334167 0.10290198773145676 -6.540237795782389e-10 1.046198905285678e-09 -3.199637776951647e-10 10.27859878540039 0.73180091381073 0.025912299752235413 -6.540237795782389e-10 1.046198905285678e-09 -3.1995742166834873e-10 2.2216696739196777 -0.7334870100021362 -0.2089199721813202 5.0888872109300376e-14 7.633330816395056e-14 1.908332704098764e-14 -76.62649536132812 32.71659469604492 -7.60982084274292 12.285598754882812 -5.652340888977051 -22.16469955444336 1.1900899410247803 29.377199172973633 -4.5378193855285645 -3.0958244301437787e-10 -1.1393509469215246e-09 -6.912999062080871e-10 -5.500069288899567e-10 -1.967541907177406e-09 -1.1866521099079819e-09 -3.0958244301437787e-10 -1.1393255228142607e-09 -6.912935224256955e-10 -7.7309088706970215 5.474880218505859 -0.41731396317481995 -3.0958244301437787e-10 -1.1393255228142607e-09 -6.912935224256955e-10 -2.9055399894714355 0.9651829600334167 -0.10290198773145676 -3.0958244301437787e-10 -1.1393255228142607e-09 -6.912999062080871e-10 -10.27859878540039 0.73180091381073 -0.025912299752235413 -3.0958244301437787e-10 -1.1393255228142607e-09 -6.913062344793275e-10 -2.2216696739196777 -0.7334870100021362 0.2089199721813202 -0.0 0.0 -0.0 -7.9363789558410645 -22.987098693847656 9.793509483337402 -0.19114996492862701 32.86869812011719 0.8741499781608582 -1.930229902267456 -6.580009460449219 -12.897398948669434 -0.0 0.0 -0.0 6.147289276123047 -16.24049949645996 -3.4010798931121826 0.08376049250364304 32.306297302246094 -0.9316080808639526 3.1189498901367188 -9.846449851989746 18.75860023498535
1.633468300883957 40.88810101339176 0.9992383944781704 -2.316999673843384 -1.4993000030517578 5.854800224304199 -5.7046990394592285 2.3156797885894775 -0.3552889823913574 4.1555399894714355 -6.078059673309326 -0.008429349400103092 -12.008997917175293 16.045297622680664 -14.081798553466797 18.406396865844727 -10.770800590515137 -25.573501586914062 -0.0 0.0 -0.0 -0.0 0.0 -0.0 1.2722218027325094e-13 1.2722218027325094e-13 5.0888872109300376e-14 74.27799224853516 41.46469497680664 -4.555629730224609 -15.57610034942627 -8.29916000366211 28.78260040283203 -0.00030272797448560596 -0.4968169927597046 -0.06982488930225372 -1.548446593169217e-09 2.266005161288831e-09 -9.367687736627772e-10 -2.6805713204680615e-09 3.92007137861583e-09 -1.6175091266390496e-09 -1.548446593169217e-09 2.266005161288831e-09 -9.367751019340176e-10 7.7309088706970215 5.474880218505859 0.41731396317481995 -1.548472017276481e-09 2.266005161288831e-09 -9.367751019340176e-10 2.9055399894714355 0.9651829600334167 0.10290198773145676 -1.548446593169217e-09 2.266005161288831e-09 -9.367687736627772e-10 10.27859878540039 0.73180091381073 0.025912299752235413 -1.548472017276481e-09 2.266005161288831e-09 -9.367687736627772e-10 2.2216696739196777 -0.7334870100021362 -0.2089199721813202 1.2722218027325094e-13 1.2722218027325094e-13 5.0888872109300376e-14 -76.8113021850586 32.48670196533203 -7.489959239959717 12.270798683166504 -5.641729831695557 -22.135997772216797 1.1940698623657227 29.4208984375 -4.545919895172119 -9.312918214376964e-10 -2.701384893555314e-09 -1.6712986550260212e-09 -1.6456952467436281e-09 -4.658036623084172e-09 -2.8633895254870367e-09 -9.312918214376964e-10 -2.701359358425748e-09 -1.6712923267547808e-09 -7.7309088706970215 5.474880218505859 -0.41731396317481995 -9.312918214376964e-10 -2.701359358425748e-09 -1.6712923267547808e-09 -2.9055399894714355 0.9651829600334167 -0.10290198773145676 -9.312918214376964e-10 -2.701359358425748e-09 -1.6712923267547808e-09 -10.27859878540039 0.73180091381073 -0.025912299752235413 -9.312918214376964e-10 -2.701359358425748e-09 -1.6712986550260212e-09 -2.2216696739196777 -0.7334870100021362 0.2089199721813202 -0.0 0.0 -0.0 -7.976750373840332 -23.004602432250977 9.684179306030273 -0.19223597645759583 32.95880126953125 0.8768889307975769 -1.9222595691680908 -6.636709690093994 -12.779199600219727 -0.0 0.0 -0.0 6.125519752502441 -16.130901336669922 -3.4112601280212402 0.08345793187618256 32.29660415649414 -0.9257319569587708 3.136399269104004 -9.866710662841797 18.827999114990234
1.629577917430318 40.88111031477625 1.0170000863038504 -2.3018996715545654 -1.5543999671936035 5.803299903869629 -5.757449150085449 2.3395097255706787 -0.5260829925537109 4.3053998947143555 -6.070889949798584 -0.051011499017477036 -12.095598220825195 16.075098037719727 -14.213098526000977 18.650997161865234 -9.830389022827148 -25.947998046875 -0.0 0.0 -0.0 -0.0 0.0 -0.0 5.0888872109300376e-14 1.7811105238255132e-13 3.1805545068312735e-14 73.99039459228516 41.624996185302734 -4.303289413452148 -15.682999610900879 -8.395899772644043 29.006298065185547 -0.0004767810751218349 -0.6241099238395691 -0.0877164974808693 -4.6036618961409204e-10 1.307564168051556e-09 -9.844388637603174e-10 -7.999476081543833e-10 2.263766063492767e-09 -1.7024427423351085e-09 -4.603407377512525e-10 1.307564168051556e-09 -9.844388637603174e-10 7.7309088706970215 5.474880218505859 0.41731396317481995 -4.6036618961409204e-10 1.307564168051556e-09 -9.84432535489077e-10 2.9055399894714355 0.9651829600334167 0.10290198773145676 -4.6036618961409204e-10 1.307564168051556e-09 -9.84432535489077e-10 10.27859878540039 0.73180091381073 0.025912299752235413 -4.6036618961409204e-10 1.307564168051556e-09 -9.844260961955342e-10 2.2216696739196777 -0.7334870100021362 -0.2089199721813202 5.0888872109300376e-14 1.7811105238255132e-13 3.1805545068312735e-14 -76.9512939453125 32.350399017333984 -7.394509315490723 12.274999618530273 -5.640629768371582 -22.141996383666992 1.1904598474502563 29.38129997253418 -4.538569927215576 -1.2148700934133672e-09 -1.3764676065619597e-09 -3.76813025226852e-10 -2.104789231793802e-09 -2.3436870222326434e-09 -6.215121750585695e-10 -1.2148700934133672e-09 -1.3764676065619597e-09 -3.7680028541764443e-10 -7.7309088706970215 5.474880218505859 -0.41731396317481995 -1.2148700934133672e-09 -1.3764676065619597e-09 -3.768066414444604e-10 -2.9055399894714355 0.9651829600334167 -0.10290198773145676 -1.2148700934133672e-09 -1.3764676065619597e-09 -3.768066414444604e-10 -10.27859878540039 0.73180091381073 -0.025912299752235413 -1.2148700934133672e-09 -1.3764676065619597e-09 -3.76813025226852e-10 -2.2216696739196777 -0.7334870100021362 0.2089199721813202 -0.0 0.0 -0.0 -8.012530326843262 -23.011301040649414 9.591829299926758 -0.19323097169399261 33.04079818725586 0.8791729211807251 -1.914430022239685 -6.686669826507568 -12.672398567199707 -0.0 0.0 -0.0 6.103990077972412 -16.037599563598633 -3.409359931945801 0.0840766504406929 32.303096771240234 -0.9275319576263428 3.151299476623535 -9.868450164794922 18.899898529052734
